<?xml version="1.0" encoding="utf-8"?>
<!-- Generator: Adobe Illustrator 27.9.1, SVG Export Plug-In . SVG Version: 6.00 Build 0)  -->
<svg version="1.1" id="Слой_1" xmlns="http://www.w3.org/2000/svg" xmlns:xlink="http://www.w3.org/1999/xlink" x="0px" y="0px"
	 viewBox="0 0 1000 190" style="enable-background:new 0 0 1000 190;" xml:space="preserve">
<style type="text/css">
	.st0{fill:#FFB706;}
	.st1{fill:#161A26;}
</style>
<g>
	<g>
		<path class="st0" d="M100.5,63.4c-2.7,0-5.4-1-7.4-3.1c-4-4.1-4-10.7,0.1-14.7l29-28.5c4.1-4,10.7-4,14.7,0.1
			c4,4.1,4,10.7-0.1,14.7l-29,28.5C105.8,62.4,103.2,63.4,100.5,63.4z"/>
	</g>
	<g>
		<path class="st0" d="M20.6,80c-2.7,0-5.4-1-7.4-3.1c-4-4.1-4-10.7,0.1-14.7L67.6,8.8c4.1-4,10.7-4,14.7,0.1s4,10.7-0.1,14.7
			L27.8,77C25.8,79,23.2,80,20.6,80z"/>
	</g>
	<g>
		<path class="st0" d="M146.4,75.4c-2.7,0-5.4-1-7.4-3.1c-4-4.1-4-10.7,0.1-14.7l4.1-4c4.1-4,10.6-4,14.7,0.1c4,4.1,4,10.7-0.1,14.7
			l-4.1,4C151.7,74.4,149.1,75.4,146.4,75.4z"/>
	</g>
	<g>
		<g>
			<path class="st0" d="M159.2,109.1c-4.1-3.8-10.7-3.3-14.7,0.7l-0.5,0.5c-3.9,3.9-10.2,3.8-14.1-0.1l0,0
				c-3.9-3.9-3.8-10.3,0.1-14.1l0.3-0.3c4-3.9,4.6-10.5,0.9-14.7c-4-4.5-10.8-4.7-15.1-0.5l-24.6,24.2c-3.9,3.9-4.6,10.3-1,14.5
				c2.1,2.4,5,3.7,7.9,3.7c2.6,0,5.3-1,7.3-3l1.5-1.5c3.9-3.9,10.2-3.8,14.1,0.1l0,0c3.9,3.9,3.8,10.2-0.1,14.1l-34.3,33.7
				c-4.1,4-4.1,10.6-0.1,14.7c2,2.1,4.7,3.1,7.4,3.1c2.6,0,5.3-1,7.3-3l58-57.1C163.7,120,163.6,113.1,159.2,109.1z"/>
		</g>
	</g>
	<g>
		<g>
			<path class="st0" d="M8.4,140.1c4.1,3.8,10.7,3.3,14.7-0.7l0.5-0.5c3.9-3.9,10.2-3.8,14.1,0.1h0c3.9,3.9,3.8,10.3-0.1,14.1
				l-0.3,0.3c-4,3.9-4.6,10.5-0.9,14.7c4,4.5,10.8,4.7,15.1,0.5L75.5,145l4.1-4.1c3.9-3.9,4.6-10.3,1-14.5c-2.1-2.4-5-3.7-7.9-3.7
				c-2.6,0-5.3,1-7.3,3l-5,5c-3.9,3.9-10.2,3.8-14.1-0.1l0,0c-3.9-3.9-3.8-10.2,0.1-14.1l34.3-33.7c4.1-4,4.1-10.6,0.1-14.7
				c-2-2.1-4.7-3.1-7.4-3.1c-2.6,0-5.3,1-7.3,3l-58,57.1C3.9,129.2,4,136.1,8.4,140.1z"/>
		</g>
	</g>
	<path class="st1" d="M323.6,74.2c-4.8-5-11.4-7.5-19.8-7.5c-5.2,0-9.7,1-13.5,3.3c-3.9,2.2-6.7,4.9-8.7,8.1h-0.5V41.9h-14.6v94.3
		h14.6V99.8c0-3.9,0.8-7.5,2.5-10.6c1.6-3.1,3.9-5.5,6.7-7.1c2.7-1.7,5.8-2.5,9.4-2.5c5,0,9,1.5,11.8,4.4c2.9,2.9,4.3,7.3,4.3,13.1
		v39h14.8V95.6C330.8,86.4,328.4,79.3,323.6,74.2z"/>
	<path class="st1" d="M378.4,67.3c-4.7,0-8.7,1-12,3.3c-3.3,2.2-5.7,4.9-7.2,8.1h-0.5V68.2h-14.6v68h14.6V99.8
		c0-3.6,0.8-6.7,2.4-9.4c1.6-2.7,3.8-4.9,6.6-6.4c2.7-1.5,6-2.3,9.7-2.3h9V67.3H378.4z"/>
	<path class="st1" d="M461.4,101.9c0-6.5-1.5-12.4-4.6-17.8c-3-5.5-7.3-9.7-12.6-12.8c-5.4-3.1-11.4-4.6-18.2-4.6
		c-6.6,0-12.6,1.5-18,4.6c-5.5,3.1-9.7,7.4-12.8,12.8c-3.2,5.5-4.7,11.6-4.7,18.2c0,6.7,1.5,12.7,4.7,18.1
		c3.1,5.5,7.4,9.7,12.8,12.8c5.4,3.1,11.4,4.7,18,4.7c9.1,0,16.5-2.3,22.3-6.8c5.8-4.5,9.8-10,12-16.4h-15.3c-1.6,2.8-4,5.3-7.2,7.2
		c-3.2,2-7.2,2.9-11.9,2.9c-3.4,0-6.6-0.8-9.5-2.5c-3-1.6-5.5-3.9-7.4-6.8c-2-2.8-3.1-6-3.6-9.5h55.9V101.9z M405.8,95.6
		c0.8-2.9,2-5.6,3.8-8c1.8-2.4,4.1-4.3,7-5.8c2.8-1.4,5.9-2.2,9.3-2.2c3.5,0,6.7,0.8,9.5,2.2c2.8,1.4,5.1,3.4,6.9,5.8
		c1.7,2.4,2.8,5.1,3.3,8H405.8z"/>
	<path class="st1" d="M523.5,68.2V78H523c-0.6-1-1.9-2.5-3.9-4.4c-2-1.9-4.5-3.6-7.7-4.9c-3.2-1.4-6.9-2.1-11.1-2.1
		c-5.8,0-11.2,1.4-16.1,4.4c-4.9,3-8.8,7.3-11.6,12.7c-2.9,5.4-4.3,11.6-4.3,18.5c0,6.9,1.4,13,4.3,18.4c2.8,5.5,6.7,9.7,11.6,12.7
		c4.9,2.9,10.3,4.5,16.1,4.5c4.2,0,7.9-0.8,11.1-2.2c3.2-1.3,5.8-3,7.7-4.8c2-1.9,3.3-3.4,3.9-4.5h0.5v9.8h14.8v-68H523.5z
		 M520.9,114.1c-1.8,3.4-4.2,6-7.3,7.9c-3.1,1.8-6.6,2.7-10.4,2.7c-3.7,0-7.1-0.9-10.1-2.7c-3-1.9-5.5-4.5-7.2-7.9
		c-1.8-3.4-2.6-7.4-2.6-11.9c0-4.5,0.8-8.6,2.6-12c1.7-3.4,4.1-6,7.2-7.9c3-1.8,6.4-2.7,10.1-2.7c3.8,0,7.3,0.9,10.4,2.7
		c3,1.9,5.5,4.5,7.3,7.9c1.7,3.4,2.6,7.4,2.6,12C523.5,106.8,522.6,110.8,520.9,114.1z"/>
	<path class="st1" d="M570.4,107.3v-26h20.5v-13h-20.5V53.4h-14.8v14.8h-8.8v13h8.8v25.8c0,16.1,13,29.1,29.1,29.1h6.8v-13h-5.2
		C577.5,123.2,570.4,116.1,570.4,107.3z"/>
	<path class="st1" d="M233.6,107.3v-26h20.5v-13h-20.5V41.9h-14.8v26.3H210v13h8.8v25.8c0,16.1,13,29.1,29.1,29.1h6.8v-13h-5.2
		C240.8,123.2,233.6,116.1,233.6,107.3z"/>
	<path class="st1" d="M654.5,75.6c-4.8-5.1-11.1-7.6-19-7.6c-5.5,0-10.3,1.1-14.3,3.5c-4.1,2.4-7.2,5.4-9.1,9.1h-0.1V69.3h-8.6v67
		h8.6V99.6c0-4.7,0.9-8.9,2.8-12.4c1.9-3.6,4.5-6.3,7.9-8.3c3.3-2,7.2-2.9,11.5-2.9c5.8,0,10.5,1.8,13.9,5.4
		c3.4,3.6,5.1,8.8,5.1,15.5v39.3h8.7V96.5C661.7,87.6,659.3,80.6,654.5,75.6z"/>
	<path class="st1" d="M738.9,85c-3-5.4-7.2-9.5-12.4-12.5s-11-4.5-17.5-4.5c-6.4,0-12.3,1.5-17.4,4.5c-5.3,3-9.3,7.2-12.4,12.5
		c-3,5.3-4.5,11.2-4.5,17.8c0,6.5,1.5,12.4,4.5,17.8c3,5.3,7.1,9.4,12.4,12.4c5.2,3,11,4.5,17.4,4.5c6.5,0,12.4-1.5,17.5-4.5
		s9.3-7.2,12.4-12.4c3-5.4,4.5-11.3,4.5-17.8C743.4,96.2,741.9,90.3,738.9,85z M731.5,116.6c-2.3,4.1-5.4,7.2-9.3,9.4
		c-4,2.4-8.3,3.5-13.2,3.5c-4.8,0-9.2-1.1-13.2-3.5c-4-2.3-7.1-5.4-9.2-9.4c-2.3-4.1-3.4-8.7-3.4-13.8c0-5.2,1.1-9.8,3.4-13.9
		c2.2-4.1,5.3-7.3,9.2-9.5c4-2.3,8.4-3.4,13.2-3.4c4.9,0,9.2,1.1,13.2,3.4c4,2.3,7.1,5.5,9.3,9.5c2.3,4.1,3.4,8.7,3.4,13.9
		C734.9,107.9,733.8,112.5,731.5,116.6z"/>
	<path class="st1" d="M866.1,102.3c0-6.3-1.4-12.2-4.4-17.4c-3-5.3-7.2-9.3-12.3-12.4c-5.2-3-10.8-4.5-17-4.5
		c-6.3,0-12.1,1.5-17.3,4.5c-5.1,3-9.1,7.2-12.2,12.5c-3,5.3-4.5,11.2-4.5,17.8c0,6.5,1.5,12.4,4.5,17.8c3,5.3,7.1,9.4,12.2,12.4
		c5.2,3,10.9,4.5,17.3,4.5c8.1,0,14.9-2.2,20.5-6.5c5.5-4.3,9.5-9.5,11.9-15.7h-8.6c-2,4-5,7.3-9.1,10c-4.1,2.7-9,4.2-14.7,4.2
		c-4.4,0-8.6-1-12.4-3.2c-3.8-2.1-6.8-5-9.1-8.8c-2.3-3.7-3.6-7.9-4-12.5h59.1V102.3z M807.2,97.5c0.7-4.1,2.1-7.7,4.3-10.9
		c2.4-3.2,5.3-5.8,8.9-7.6c3.6-1.9,7.6-2.8,12-2.8s8.3,0.9,11.8,2.8c3.6,1.9,6.5,4.4,8.7,7.7c2.3,3.3,3.7,6.9,4.1,10.8H807.2z"/>
	<path class="st1" d="M887.5,126.5c-1.3-1.3-2.9-2-4.8-2c-2,0-3.6,0.7-4.8,2c-1.3,1.3-1.9,2.8-1.9,4.7c0,2,0.6,3.7,1.9,4.9
		c1.2,1.2,2.8,1.9,4.8,1.9c1.9,0,3.5-0.7,4.8-1.9c1.3-1.2,2-2.9,2-4.9C889.5,129.3,888.8,127.8,887.5,126.5z"/>
	<path class="st1" d="M903.6,69.3v66.9h8.6V69.3H903.6z"/>
	<path class="st1" d="M990.5,85c-3-5.4-7.2-9.5-12.4-12.5c-5.2-3-11-4.5-17.5-4.5c-6.4,0-12.3,1.5-17.5,4.5
		c-5.2,3-9.2,7.2-12.3,12.5c-3,5.3-4.5,11.2-4.5,17.8c0,6.5,1.5,12.4,4.5,17.8c3,5.3,7.1,9.4,12.3,12.4c5.3,3,11.1,4.5,17.5,4.5
		c6.5,0,12.4-1.5,17.5-4.5c5.2-3,9.3-7.2,12.4-12.4c3-5.4,4.5-11.3,4.5-17.8C995,96.2,993.5,90.3,990.5,85z M983.1,116.6
		c-2.3,4.1-5.4,7.2-9.3,9.4c-4,2.4-8.3,3.5-13.2,3.5c-4.8,0-9.2-1.1-13.2-3.5c-4-2.3-7.1-5.4-9.2-9.4c-2.3-4.1-3.4-8.7-3.4-13.8
		c0-5.2,1.1-9.8,3.4-13.9c2.2-4.1,5.3-7.3,9.2-9.5c4-2.3,8.4-3.4,13.2-3.4c4.9,0,9.2,1.1,13.2,3.4c4,2.3,7.1,5.5,9.3,9.5
		c2.3,4.1,3.4,8.7,3.4,13.9C986.5,107.9,985.4,112.5,983.1,116.6z"/>
	<path class="st0" d="M916.1,48.8c0,2.1-0.9,3.9-2.5,5.5c-1.6,1.6-3.6,2.3-5.9,2.3c-2.3,0-4.2-0.8-5.9-2.3c-1.6-1.5-2.4-3.4-2.4-5.5
		c0-2.1,0.8-3.9,2.5-5.4c1.6-1.5,3.6-2.3,5.9-2.3c2.3,0,4.2,0.8,5.8,2.3C915.3,44.9,916.1,46.7,916.1,48.8z"/>
	<path class="st1" d="M790.3,77.3v-8.1h-22.1V54.5h-8.5v14.8h-9.1v8.1h9.1v34.3c0,13.6,11,24.6,24.6,24.6h4.5v-8.1h-4.4
		c-8.9,0-16.2-7.3-16.2-16.2V77.3H790.3z"/>
</g>
</svg>
