<?xml version="1.0" encoding="utf-8"?>
<!-- Generator: Adobe Illustrator 27.9.1, SVG Export Plug-In . SVG Version: 6.00 Build 0)  -->
<svg version="1.1" id="Слой_1" xmlns="http://www.w3.org/2000/svg" xmlns:xlink="http://www.w3.org/1999/xlink" x="0px" y="0px"
	 viewBox="0 0 885 1000" style="enable-background:new 0 0 885 1000;" xml:space="preserve">
<style type="text/css">
	.st0{fill:#FFB706;}
</style>
<g>
	<g>
		<path class="st0" d="M535.5,324.5c-14.9,0-29.8-5.7-41.1-17.2c-22.3-22.7-22-59.1,0.7-81.4L656.2,67.4c22.6-22.3,59.1-22,81.4,0.7
			s22,59.1-0.7,81.4L575.9,308C564.7,319,550.1,324.5,535.5,324.5z"/>
	</g>
	<g>
		<path class="st0" d="M91.5,416.5c-14.9,0-29.8-5.7-41.1-17.2c-22.3-22.7-22-59.1,0.7-81.4L352.5,21.5c22.6-22.2,59.1-22,81.4,0.7
			c22.3,22.7,22,59.1-0.7,81.4L131.8,400C120.6,411.1,106.1,416.5,91.5,416.5z"/>
	</g>
	<g>
		<path class="st0" d="M790.2,391c-14.9,0-29.8-5.7-41-17.2c-22.3-22.7-22-59.1,0.6-81.4l22.8-22.4c22.7-22.3,59.1-22.1,81.4,0.6
			c22.3,22.7,22,59.1-0.6,81.4l-22.8,22.4C819.4,385.5,804.8,391,790.2,391z"/>
	</g>
	<g>
		<g>
			<path class="st0" d="M861.2,578c-23-21.1-59.3-18.1-81.5,3.7l-2.8,2.8c-21.8,21.4-56.8,21.2-78.3-0.6l0,0
				c-21.5-21.8-21.2-56.9,0.6-78.4l1.5-1.5c22.2-21.8,25.8-58,5.1-81.3c-22-24.9-60.2-26.1-83.6-3L485.4,554.2
				c-21.9,21.5-25.6,57.1-5.7,80.5c11.5,13.5,27.7,20.3,43.9,20.3c14.6,0,29.1-5.5,40.4-16.5l8.2-8.1c21.8-21.4,56.8-21.2,78.3,0.6
				l0,0c21.5,21.8,21.2,56.9-0.6,78.4l-190.2,187c-22.7,22.3-23,58.7-0.7,81.4c11.3,11.5,26.1,17.2,41.1,17.2
				c14.6,0,29.2-5.5,40.4-16.5l322.2-316.9C886.1,638.6,885.7,600.5,861.2,578z"/>
		</g>
	</g>
	<g>
		<g>
			<path class="st0" d="M23.8,750.4c23,21.1,59.3,18.1,81.5-3.7l2.8-2.8c21.8-21.4,56.8-21.2,78.3,0.6l0,0
				c21.5,21.8,21.2,56.9-0.6,78.4l-1.5,1.5c-22.2,21.8-25.8,58-5.1,81.3c22,24.9,60.2,26.1,83.6,3l133.6-131.3l22.9-23
				c21.9-21.5,25.6-57.1,5.7-80.5c-11.5-13.5-27.7-20.3-43.9-20.3c-14.6,0-29.1,5.5-40.4,16.5l-27.9,28
				c-21.8,21.4-56.8,21.2-78.3-0.6l0,0c-21.5-21.8-21.2-56.9,0.6-78.4l190.2-187c22.7-22.3,23-58.7,0.7-81.4
				c-11.3-11.5-26.1-17.2-41.1-17.2c-14.6,0-29.2,5.5-40.4,16.5L22.3,666.9C-1.1,689.9-0.7,728,23.8,750.4z"/>
		</g>
	</g>
</g>
</svg>
